<?xml version="1.0" encoding="UTF-8"?>
<svg id="Capa_1" data-name="Capa 1" xmlns="http://www.w3.org/2000/svg" viewBox="0 0 1561.82 1561.81">
  <defs>
    <style>
      .cls-1 {
        fill: none;
        stroke: #1d1d1b;
        stroke-linecap: round;
        stroke-linejoin: round;
        stroke-width: 24.94px;
      }

      .cls-2 {
        fill: #1d1d1b;
      }
    </style>
  </defs>
  <path class="cls-1" d="m1549.35,780.9c0,424.41-344.03,768.44-768.41,768.44S12.47,1205.3,12.47,780.9,356.53,12.47,780.94,12.47s768.41,344.03,768.41,768.43Z"/>
  <g>
    <path class="cls-2" d="m1484.72,474.22c.28.02.56,0,.83.01-7.57-17.38-15.77-34.4-24.55-51.06-2.76.81-4.9,1.69-5.2,2.56-.85,2.55-4.27,5.12-4.27,5.12,0,0-5.92,2.54-6.79,5.11-.85,2.55-5.09,2.55-5.09,2.55l-5.95.85,10.19,17.86,2.56,6.82,5.94,8.35s0-1.86,5.97,0c5.94,1.85,14.45,0,14.45,0l3.39.82s1.74-1.03,5.12,0c3.41,1.03-5.95.19,3.41,1.03Z"/>
    <path class="cls-2" d="m562.39,189.24l1.19.54c5.17-3.96-1.19-.54-1.19-.54Z"/>
    <path class="cls-2" d="m784.41,979.54c.85-3.42-28.05-36.59-28.05-36.59l-22.95-5.95-49.35-15.31-19.57-9.35-22.13,8.49s-11.89,5.95-20.39,5.12c-8.51-.85-22.13-10.21-22.13-12.76s-.86-6.81,1.7-9.37c2.56-2.54,10.21-15.29,11.92-17.86,1.7-2.55,2.53-4.25,2.53-11.06s5.1-19.57-3.38-25.51c-8.51-5.96-58.72-21.28-58.72-21.28,0,0-10.21-16.16-13.62-18.71-3.39-2.55-34.88-13.6-34.88-13.6,0,0-7.65-6.82-10.21-8.5-2.53-1.71-27.22-12.77-27.22-12.77l-40.85-3.41s4.26-8.71-6.8-9.46c-11.04-.74-20.4,10.31-20.4,10.31,0,0,0,9.36-4.27,13.62-4.24,4.24-18.71-10.21-18.71-10.21,0,0,.85-5.94-4.25-.85-5.09,5.11-14.48,3.41-17.01,9.37-2.56,5.93-8.51,7.64-8.51,7.64,0,0-16.18-13.61-19.57-12.76-3.41.85-20.42,5.12-20.42,5.12,0,0,.86,2.54-4.27,1.7-5.09-.86-28.93-23.93-28.93-23.93,0,0-.82-6.7,0-9.24.88-2.55-.36-26.4-.36-26.4l-7.26-11.9s-11.92-2.55-14.48,0c-2.56,2.55-28.93-7.64-26.34-11.91,2.53-4.25,7.63-4.25,10.16-12.75,2.58-8.52,2.58-30.63,2.58-30.63l6.8-8.51s-16.52-7.66-19.74,0c-3.24,7.64-15.99,16.17-16.87,19.57-.71,2.87-31.05,6.95-40.51,8.16.47-1.09.06-3.57-2.84-9-6.83-12.76-15.31-39.99-15.31-42.53s-11.94-11.07,0-24.67c11.89-13.63,11.04-17.88,12.74-20.43,1.71-2.55,18.72-11.9,23.81-13.61,5.12-1.7,8.54-8.51,17.89-8.51s16.16.85,18.69,0c2.58-.85,5.12,2.56,10.21,0,5.12-2.55,1.7-3.4,12.77-7.66,11.03-4.26,16.15-4.25,22.95,0,6.82,4.26,28.93,1.72,28.93,1.72,0,0,2.56-11.07,6.8,4.24,4.27,15.31,5.09,12.77,7.68,21.27,2.53,8.51,16.98,17.87,16.98,17.87,0,0,1.7,15.31,5.09-5.95q3.44-21.26,3.44-26.38c0-5.1,0-24.66,2.53-27.21,2.56-2.55,30.64-36.59,30.64-36.59,0,0,17.89-16.18,23.8-23.8,5.98-7.66,12.77-18.73,12.77-18.73,0,0,10.18-18.71,12.75-21.26,2.56-2.55,11.06-5.1,21.3-8.51,10.19-3.41,20.4-5.11,26.34-11.91,5.94-6.78,6.82-13.61,13.62-17.01,6.8-3.39,5.09-7.64,17.01-15.3,11.92-7.66,16.16-5.97,28.9-10.22l12.77-4.24s3.41,5.94,4.26,15.31c.85,9.34-6.82,10.2.85,9.34,7.65-.83,12.77-1.7,20.4-7.65,7.68-5.95,3.41-2.54,7.68-5.95,4.24-3.41,5.09-21.87,5.09-21.87,0,0,6.8-7.9-1.7-13.86-8.51-5.96-7.65-7.66-14.45-5.96-6.8,1.71-22.13,4.7-22.13-.62s25.51-19.8,25.51-19.8c0,0,12.77.85,25.54,0,12.77-.85,35.72-2.54,40.85-9.35,5.09-6.81,37.41-16.17,37.41-16.17,0,0,5.98-16.17-.83-21.28-6.83-5.09-16.16-1.71-21.28-15.31-5.12-13.61-18.69-41.68-20.43-44.23-1.73-2.55-19.57-8.51-22.1-8.51h-11.06l-30.3-13.92c-1.63,1.25-4.35,3.22-8.84,6.26-18.71,12.76-20.42,10.22-23.83,15.31-3.41,5.1-11.89,11.91-17.86,20.42-5.95,8.51-4.24,9.34-10.21,17.87-5.95,8.49-5.98,12.75-15.3,19.55-9.36,6.81-38.29,33.18-38.29,33.18,0,0-13.6,1.71-14.45-12.76-.85-14.47-5.09-25.52-5.09-28.92s-14.48-11.92-14.48-11.92c0,0-27.22.86-28.93-5.11-1.71-5.96-5.12-10.22-5.12-16.16s-2.53-17.01,1.71-22.99c4.29-5.93,4.29-16.37,11.91-16.7,7.66-.3,9.36-3.7,22.13-5.41,12.77-1.7,24.69-2.55,31.46-6.8,6.8-4.26,10.21-11.05,19.57-12.75,9.36-1.72,12.75-.86,22.98-4.27,10.21-3.4,19.57-7.65,23.81-7.65s12.74-4.12,17.01-4.19c4.27-.06,8.51-8.58,8.51-8.58l8.53-25.51s-5.97,1.69-24.69,8.5c-18.72,6.81-16.13,25.53-30.64,11.06-14.45-14.46-29.09-30.63-28.99-31.46.06-.87-9.3-1.71-13.54,5.93-4.27,7.66-10.21,10.22-17.01,17.88-6.83,7.65-5.12,10.2-19.57,10.2-8.7,0-29.13-1.86-44.02-3.32C205.2,236.09,82.74,401.85,34.79,597.02c2.97,5.1,5.67,9.42,6.99,11.61,2.54,4.26,28.93,37.43,28.93,37.43,0,0-14.5,19.56-1.71,25.53,12.75,5.95,10.19,1.7,28.06,14.45,17.86,12.76,30.63,17.87,30.63,17.87,0,0-25.55-5.11,14.45,6.83,39.97,11.9,44.23,14.43,45.94,11.9,1.73-2.56,2.56-15.33,6.83-3.41,4.24,11.91-2.56,10.21,13.56,20.42,16.19,10.21,35.76,26.37,40.85,29.78,5.12,3.4,12.77,9.34,12.77,9.34,0,0,25.54,19.04,28.07,20.15,2.56,1.13,34.03,10.48,34.03,10.48,0,0,17-7.66,20.42.85,3.39,8.5,5.1,12.76,3.39,18.73-1.68,5.96-17.86,35.73-17.86,35.73l-11.89,22.97-15.33,18.71v22.11s0,1.72,3.41,5.97c3.39,4.24-3.41,29.76-3.41,29.76l13.62,17.88s4.24,15.3,7.66,21.27c3.41,5.96,10.18,20.4,12.77,24.67,2.53,4.25,7.65,9.35,7.65,9.35,0,0,10.19,10.2,13.6,18.71,3.42,8.53,11.06,12.77,14.48,17.86,3.39,5.13-2.56.85,3.39,5.13,5.97,4.24,3.39,1.69,12.8,6.78,9.33,5.13-7.71-12.75,9.33,5.13l17.01,17.85s4.24-.85,11.06,21.28c6.83,22.12,10.22,28.06,10.22,28.06v48.49s3.39,14.46,0,21.28c-3.39,6.8-4.27,34.87-3.39,42.53.83,7.65,3,8.51,4.9,21.27,1.88,12.75,3.61,23.81,4.47,35.71.82,11.94,0,13.61,0,22.98s-6.06,31.49.36,45.1c6.41,13.6-4.65,0,15.77,21.25,20.43,21.28,25.55,17.88,25.55,28.08s-1.71,14.47,6.8,32.33c3.52,7.38,1.24,12.13-.47,15.18,4.4,1.79,8.84,3.5,13.27,5.22.58,0,1.05,0,1.65,0,31.49,0,33.17-5.94,33.17-5.94,0,0,1.71-8.51,4.27-11.91,2.56-3.42,8.51-19.57,8.51-23.82s-5.95-25.51-5.95-25.51l-8.5-17.01s-5.98-9.38,0-18.72c5.94-9.37,14.45-28.09,14.45-28.09,0,0-5.97-8.49,0-11.05,5.94-2.55,11.06-5.12,13.62-7.67,2.53-2.54,8.51-11.05,8.51-13.6s5.09-15.32,0-22.12c-5.12-6.81-9.39-8.52-4.27-11.92,5.09-3.4,20.42-14.46,20.42-14.46,0,0,5.12,2.56,9.36.86,4.27-1.71,14.48-17.87,18.71-22.98,4.27-5.11,9.36-14.46,11.1-17.01,1.68-2.56,7.63-18.71,9.33-29.78,1.7-11.06,2.56-13.6,7.65-15.3,5.09-1.7,6.82-4.26,11.06-6.82,4.24-2.55,5.09-1.7,13.63-10.21,8.48-8.5-.88-9.36,14.45-12.75,15.28-3.41,18.72-5.11,21.25-5.96,2.58-.84,9.35-5.1,13.6-9.35,4.26-4.25,6.82-11.06,12.77-17.01,5.98-5.96,9.36-15.32,9.36-17.86s-5.95-7.65,0-17.01c5.94-9.36-.85-4.26,11.06-24.68,11.92-20.4,16.16-40.83,20.4-44.22,4.27-3.41,11.06-39.98,11.06-39.98,0,0-.83-12.77,0-16.17Z"/>
    <path class="cls-2" d="m401.78,120.61c3.82-4.96,10.21-12.62,10.21-12.62,0,0,1.33-1.16,2.31-2.59-6.72,3.65-13.27,7.59-19.87,11.43,2.45,3.09,4.56,7.43,7.35,3.78Z"/>
    <path class="cls-2" d="m451.55,88.23s-3.19,3.82,0,3.82-.63-1.91,3.19,0c3.82,1.92,7.65,0,7.65,0l3.82.86,3.19-4.36h5.75l4.46-4.33v-8.76c-1.38-.2-2.42-.06-3.58,0-9.5,4.1-18.94,8.29-28.21,12.76h3.71Z"/>
    <path class="cls-2" d="m517.91,74.82h-21.08l-5.07,9.03,1.9,5.01,1.93-.63c1.9-.64,3.82,0,6.36-2.62,2.56-2.6,2.56-1.76,2.56-1.76,0,0,7.65-3.28,9.58-4.51,1.9-1.22,5.09,0,5.09,0,0,0,2.57-.05,4.46,0,1.93.06,0-4.52,0-4.52h-5.72Z"/>
    <path class="cls-2" d="m545.1,63.33c4.27.87,7.6,0,7.6,0,0,0,2.23,2.13,6.47,2.13h13.6s5.94-1.27,7.68,0c1.71,1.29,5.12-1.27,6.8,0,1.71,1.29,3.83-1.4,5.53.38,1.68,1.74,6.8,1.74,6.8,1.74h8.1s3.82.43,5.12,0c1.27-.41,2.53,1.67,3.8.2,1.27-1.45,4.68-5.71,4.68-5.71,0,0,2.12-2.12-1.68-3.19-3.83-1.07,0,.22-8.09,0-8.09-.22-11.06,0-11.06,0,0,0-2.56-1.06-3.83,0-1.26,1.04-1.7-.63-6.39,0-4.68.63-11.91,0-11.91,0h-3.83l-4.23-1.92s-.44-.84-1.74-.84-2.97-2.13-2.97-2.13l-.42-1.69-2.97-1.72c-2.53,0-7.21-2.55-8.53,0-1.27,2.56-3.38,4.26-4.66,5.54-1.29,1.27-2.56,1.7-3.39,2.96-.87,1.28.39,1.71,0,3-.47,1.26-4.68.41-.47,1.26Z"/>
    <path class="cls-2" d="m681.57,151.07c.97-2.24.97-2.2,1.27-4.29.33-2.09,1.92-3.37-1.57-5.29-3.52-1.9-4.16-2.22-7.35-5.1-3.2-2.87-7.66-8.93-7.66-8.93,0,0-.63-1.29-.63-4.78v-6.71c0-1.6,1.9-3.83-2.58-5.11-4.47-1.28-12.75-4.16-12.75-4.16l-7.65-8.3s-1.27-1.26-2.86-3.18c-1.6-1.9,0-4.15-4.16-4.15s-2.23-1.59-7.66,0c-5.45,1.6-10.84,1.82-10.84,1.82l-5.43-2.13s-3.55-1.91-6.25-4.77c-2.72-2.88-4.62-6.71-7.79-6.08-3.22.65-6.72,2.57-7.98,1.92-1.29-.64-3.11,1.5-7.13,2.01-4.05.54-10.43,0-10.43,0l-4.13-2.01-3.52-4.47-6.09-2.55h-3.47s-3.55,0-5.12,2.25c-1.6,2.22-4.78,4.77-4.78,4.77,0,0-1.6.85-3.2,2.01-1.6,1.18-3.19,1.5-4.46,3.09-1.29,1.6-2.89-.33-3.49,1.91-.66,2.23-2.56,4.15-3.52,5.42-.96,1.28-2.26.95-2.56,2.22-.33,1.3-.64,2.34,0,3.74.63,1.37,1.26,1.37,2.86,2.98,1.62,1.58,3.52,2.54,3.52,2.54h7c1.29,0,5.12.33,6.08,0,.96-.32,4.78.15,4.78.15h2.89s-4.49-2.42,2.84,0c7.35,2.42,8.95,2.42,8.95,2.42,0,0-1.9.94,2.23,0,4.16-.96,6.09-2.24,6.09-2.24,0,0,3.49-1.91,4.46-1.91s3.82-.65,5.72-.65,2.89-.31,4.49,0c1.6.32,4.46.65,5.75,1.6,1.27.96,4.13,2.12,5.7,3.61,1.6,1.49,2.89,1.49,4.18,2.75,1.27,1.29-.33-.95,1.27,1.29,1.59,2.24,2.25,2.87,4.45,5.74,2.26,2.86,1.3,1.91,3.83,5.1,2.56,3.2,5.01,3.52,6.96,5.43,1.98,1.9,3.58,2.55,3.58,2.55,0,0,3.83.31,6.06,2.54,2.25,2.24,1.26-1.91,2.25,2.24.94,4.14,1.9.31.94,4.14-.94,3.84,2.86,2.55-2.86,4.77-5.75,2.25-3.61.69-9.97,1.47-6.3.78-18.44-2.06-20.7,0-2.2,2.05-4.76,1.73-6.36,5.57-1.6,3.81-3.83,1.91-1.6,6.69,2.26,4.78.33,1.6,2.26,4.78,1.9,3.19,2.53,1.28,4.76,6.69,2.23,5.44-1.27,2.88,3.82,8.3,5.12,5.42,10.85,7.98,14.37,9.89,3.5,1.91,13.41,2.55,13.41,2.55l3.27-1.91s4.21.32,0-3.18c-4.23-3.52-8.06-7.98-8.06-7.98l.96-2.87s.97-2.24,2.56-2.24,8.89,3.2,8.89,3.2c0,0,.99.32,1.95.64.94.31-.33.64,3.19.31,3.5-.31,5.07-.63,5.73-1.58.63-.96,2.56-2.56,2.26-5.12-.33-2.54-1.63-5.73-1.95-6.69-.3-.94-.97-3.82-.97-4.78s-.3-5.42-.3-6.39-.57-1.91,3.25-3.17c3.8-1.3,6-1.3,6-1.3,0,0,2.56.96,4.47,2.26,1.92,1.26,6.08,3.18,6.08,3.18,0,0,.64.63,3.19.32q2.53-.32,4.79-.96c2.2-.63,3.5.33,4.46-1.91Z"/>
    <path class="cls-2" d="m636.68,31.87c-3.05,2.97-5.61,3.82-5.61,3.82,0,0-2.12,1.7-3.42,0-1.26-1.7-5.81-3.39-5.81-3.39l3.25,8.07s-2.23-2.98-3.25,0c-.99,2.98-1.4,2.98-2.7,2.98s-2.56-2.55-6.36,0c-3.82,2.55-9.38,2.55-10.65,2.12-.99-.32-1.92.79-3.6.75-.55-.02-1.18-.16-1.93-.54-2.97-1.48-4.68,0-4.26.54.44.54,9.79,3.78,11.06,3.22,1.29-.56,7.65,0,7.65,0l5.54-1.84s1.62-1.7,3.16,0c1.52,1.71,7.46,1.84,7.46,1.84,0,0,1.3.29,3.86,2.43,2.56,2.11,7.65,2.11,7.65,2.11,0,0,2.56-1.69,3.82-2.11,1.26-.43,5.09-.15,4.68-2.43-.41-2.27,2.56-3.97,3.8-4.39,1.32-.42,3.85-2.97,6.41-3.4,2.53-.42,3.41-1.28,7.21-2.56,3.82-1.27,6.39-1.55,7.68-2.48,1.27-.92,5.1-3.47,6.8-3.47s7.65-2.99,8.92-2.99,7.23-3.82,9.77-3.82,9.38-1.27,10.65-1.27,3.82-2.14,6.8-2.14-1.68-1.27,5.53-1.7c7.27-.42,21.69-3.83,21.69-3.83,0,0,4.27-2.12,5.53-2.54.44-.15,1.7-.85,3.14-1.64-23.84.92-47.4,2.96-70.66,5.99-3.44,4.06-4.02,6.54-5.23,5.8-1.26-.8-12.3,1.33-13.57,1.74-1.26.45-3.41.45-3.41.45l-2.56-.45s-.44-1.38-2.97-1.74l-2.56-.37s-.38-.3-.93-.69c-4.02.69-8.04,1.38-12.03,2.14.91,3.05,2.33,3-.56,5.78Z"/>
    <path class="cls-2" d="m360.33,647.77c-3.23-3.83-3.23-1.93-7.69-5.73-4.46-3.84-6.38-2.56-8.92-5.77-2.56-3.18-11.48,0-11.48,0,0,0-6.41-3.18-8.31-3.18s-17.86-3.18-19.77-3.18-12.74,6.36-12.74,6.36l-4.49,1.92v3.18l7.02,1.92h8.29l4.46-1.26,7.05-.66s52.93,25.52,54.86,23.62c1.93-1.92,7.02,0,7.02,0v-5.13l-1.93-.63c-1.9-.63-5.72-1.9-10.21-7.64-4.46-5.77,0,0-3.16-3.83Z"/>
    <path class="cls-2" d="m396.03,681.59l-5.09.62-10.84,3.2,4.46-.35c4.46-.34,7.65.35,11.48,0,3.86-.34,3.86-2.85,5.76-1,1.9,1.85,7.04.71,12.14,0,2.78-.38,3.63-.51,3.85-.56.3.05,7.68,1.24,10.79-.01,3.19-1.28,0,0,4.48-2.55,4.49-2.55,4.49-.62,12.77-3.81,8.28-3.19,0,0-.66-4.49-.63-4.45,0,0-3.8-1.28-3.82-1.25-6.41-1.89-9.61-3.18-3.19-1.28-5.09,0-10.84-2.56-5.72-2.57-3.19-.53-3.19-.53,0,0-5.09,1.18-7.63,0-2.58-1.18-8.31,0-8.31,0v4.38l1.9,5.4-3.16,4.17-4.49,2.55Z"/>
    <path class="cls-2" d="m731.01,30.15c-5.1-2.53-14.04,8.94-14.04,8.94v10.35h7.65s33.19-5.23,40.84-2.68c7.65,2.55,0,0,1.27,7.22,1.29,7.23,5.09,14.34,5.09,14.34l19.16,6.5,12.14,8.94s1.27-.65,1.9,3.18c.66,3.83,1.9,3.2,0,7.03-1.9,3.82-5.72,6.27-5.72,6.27v5.85s3.82-1.29,1.26,5.1c-2.56,6.39-4.49,8.29-6.39,9.55-1.93,1.3-4.48,1.3-5.12,3.85-.61,2.55-4.62,8.45-4.62,8.45,0,0-6.53,3.02-4.46,4.95,2.09,1.91,0,8.79,0,8.79,0,0-5.59,4.61-9.41,5.87-3.82,1.3-6.38,15.33-7.65,20.42-1.26,5.12,3.83,18.19,3.83,18.19,0,0,5.09,7.35,13.24,8.61,8.15,1.28,40.36,0,41.61-8.61,1.3-8.61,19.16-9.26,19.16-9.26l8.95-10.2c8.92-10.21,6.35-5.11,14.03-16.59,7.65-11.48,7.65,0,7.65,0,0,0,22.96-1.27,37-8.43,14.06-7.16,5.92,0,5.92,0,0,0,11.95-8.16,18.33-13.73,0,0,29.32-7.18,39.55-11.05,10.18-3.86,6.39,1.33,10.18,0,3.86-1.31,8.95,0,8.95,0,0,0,5.12-1.24,11.51-6.33,6.35-5.11-3.83-6.38-3.83-6.38,0,0-3.85-7.66-2.55-9.03,1.26-1.4,7.65-7.34,7.65-7.34v-7.3l6.39-3.77s5.09-5.74,26.78-13.52c16.51-5.94,13.87-4.28,15.55-6.21-81.58-30.88-169.78-48.22-261.9-49.39-6.55,2.43-4.13,14.15-6.47,17.43-2.69,3.84-21.53,4.29-21.53,4.29,0,0-26.81-1.73-31.9-4.29Z"/>
    <path class="cls-2" d="m1102.76,266.66c4.27-5.13,0,0,0-5.44h-4.24s-3.41-.52-5.98,0c-2.55.51-5.12.31-7.65,0-2.56-.33-5.1-.52-8.51-3.94-3.38-3.4-6.8,0-6.8,0l-13.62,9.38h-12.75l-4.27,8.5h4.27l6.8.85,6.8,3.39h26.37l3.39-5.94h4.27s7.68-1.7,11.92-6.79Z"/>
    <path class="cls-2" d="m1140.19,308.36c0,2.54-11.92,8.5-11.92,8.5h11.92l7.65-3.41c5.12,0,17.86-2.55,17.86-2.55h11.92l5.09-2.54v-9.38l5.95-4.25-5.09-4.25-11.91-11.08-1.68-5.7-4.27-9.59-3.41-8.33h-6.8s-1.71-2.74-1.71-5.29v-12.76l-5.09-3.4s-3.42-8.51-5.09,0c-1.71,8.5-.86,3.4-1.71,8.5-.85,5.1,0,1.71-.85,5.1l-.86,3.4v4.44l8.51,4.07,3.41,4.26v15.29h-5.97v3.42h-5.95v14.46h5.95l5.97,3.4-5.97,7.68s-5.95-2.58-5.95,0Z"/>
    <path class="cls-2" d="m1247.79,175.63c-4.47,1.27-5.72-1.91-8.26,3.82-2.59,5.73-11.51,4.46-10.24,10.85,1.26,6.36,0,.83,1.26,9.99,1.27,9.15.66,9.78,3.22,13.61,2.53,3.84,3.16,6.38,5.09,9.58,1.92,3.18,6.39,3.81,6.39,3.81,0,0,3.16,1.27,10.84-.63,7.65-1.91,17.23-5.74,21.06-5.74s4.46,0,7.65,5.1c3.19,5.1,1.27,2.54,3.86,10.85,2.53,8.3,0,10.85,3.8,14.67,3.83,3.82,8.28,6.55,12.12,4.23,3.82-2.32,8.64-5.5,12.3-6.77,3.16-1.1,7.84-7.88,9.08-9.73-22.76-22.9-47.04-44.24-72.53-64.14-1.59-.12-3.61-.09-5.64.49Z"/>
    <path class="cls-2" d="m1509.33,536.16c-3.36,1.79-5.04,1.85-5.04,1.85h-7.68c-2.54,0-16.16,3.42-18.69,0-2.56-3.38-27.22-11.9-27.22-11.9-5.12,3.41-22.13,3.41-22.13,3.41-5.12-.84-13.6-4.26-13.6-4.26l-12.77-6.81-22.13-1.69s-3.39,4.24-3.39,9.34,5.1,8.98,0,13.43c-5.09,4.44-8.51,6.15-11.06,6.15s-5.09.85-7.66,0c-2.56-.84-21.24-5.11-26.78-6.4-5.56-1.29-14.3-7.65-14.3-7.65v-6.38l-15.5-6.38s-5.09-1.28-8.92-2.54c-3.8-1.27-15.3-8.94-15.3-8.94l-1.29-14.03v-7.66l-3.82-8.93s0-8.94-3.83-8.94-20.42,5.11-20.42,5.11l-10.21,1.26h-12.75s6.39-1.26-6.38-1.26h-38.29c-8.92,8.93-28.05,21.68-28.05,21.68,0,0-23.4-1.27-23.84-2.55-.41-1.27-16.68-3.82-16.68-3.82,0,0-2.09,7.66-6.94,11.48l-4.88,3.82-15.3,14.04-12.69,8.94c-.08,7.66,3.94,16.07,0,19.52-3.9,3.46-12.83,12.38-12.83,12.38h-6.41s-5.09,6.38-7.62,10.21c-2.59,3.82-5.98,7.66-5.98,7.66,0,0-4.27,2.54-6.8,7.64-2.53,5.12-8.95,10.21-8.95,10.21l-12.74,20.42s6.39-2.55,0,6.38c-6.39,8.94-11.48,11.49-14.03,19.14-2.56,7.67-1.3-5.09-2.56,7.67-1.29,12.75-5.1,14.03,0,19.13,5.12,5.11,5.12,3.83,5.12,11.48s1.27,7.66-1.29,15.34c-2.56,7.64-2.61,2.52-6.41,15.29-3.8,12.76-1.3,22.98,0,26.81,1.29,3.82-8.92-8.93,1.29,3.82,10.24,12.76,14.07,15.94,19.16,22,5.12,6.06-2.56-15.63,5.12,6.06,7.65,21.7,5.09,17.75,11.48,31.21,6.35,13.46,3.38,13.46,10.62,22.38,7.24,8.94,4.71,7.67,13.6,14.05,8.95,6.37-14.04,1.27,8.95,6.37,22.98,5.11,17.86,7.66,33.17,0,15.31-7.66,3.82-6.37,15.31-7.66,11.5-1.27,24.24-1.27,24.24-1.27,0,0,3.86,2.55,7.68,2.55s24.26-6.38,24.26-6.38c0,0-3.86-3.83,6.35-7.67,10.21-3.82,2.57-2.56,10.21-3.82l7.68-1.28s5.09-2.55,12.75,1.28c7.65,3.82,14.03,7.66,19.15,12.75,5.09,5.12-3.85-5.1,5.09,5.12,8.92,10.21,21.69,11.21,21.69,11.21,0,0,2.56-5.38,6.38,0,3.8,5.37,5.09,4.09,7.65,11.76,2.56,7.64,1.26-3.84,2.56,7.64,1.26,11.5-6.41,3.84-3.86,19.16,2.56,15.31-1.27,2.55,2.56,15.31,3.82,12.76-2.56,2.55,6.39,19.15,8.92,16.57-5.42,8.92,9.38,24.24,0,0,14.01,14.45,14.01,18.7s-.86-.83.85,8.52c1.68,9.34,3.39,11.06,5.95,16.15,2.56,5.12,3.41,12.76,5.09,17.02,1.71,4.26.86,8.52,2.55,16.17,1.71,7.66.86,12.77-.85,17.01-1.71,4.26-3.39,5.11-5.94,12.76-2.56,7.64-6.8,3.4-9.36,17-2.53,13.62-5.09,13.62-2.53,23.84,2.53,10.2,1.68,15.3,4.24,22.96,2.53,7.65,4.23,9.34,10.21,18.71,5.94,9.34,9.69,19.57,12.5,26.36,2.8,6.81,1.12,2.55,4.51,15.33,3.39,12.75,2.53,5.93,5.95,22.12,3.39,16.17,2.56,20.4,8.53,34.03,5.92,13.59,11.03,19.57,13.6,21.26,2.56,1.7,2.56-4.26,7.65,9.35,5.04,13.43-3.08,7.94,4.81,22.39,116.68-134.75,187.42-310.35,187.42-502.6,0-85.61-14.2-167.85-40.02-244.74Z"/>
    <path class="cls-2" d="m1357.56,273.26c-.64.19-1.22.5-1.95.44-5.09-.45-8.92.45-10.82,0-1.9-.45-13.41,1.09-15.31,0-1.95-1.09-11.81,1.46-12.6,3.38-.8,1.91-8.48,3.41-10.38,2.32-1.92-1.05-12.11-5.7-12.11-5.7h-12.14s-7.02,1.72-8.92,0c-1.93-1.73-4.46,1.09-6.39,0-1.93-1.09-8.28,4.24-8.95,5.7-.63,1.51-.63-1.46-5.09,0-4.48,1.51-3.82-2.74-8.29,0-4.48,2.78-8.31,1.51-9.6,4.06-1.24,2.56-5.72,3.83-6.35,5.74-.64,1.9,1.26,0-3.83,5.09-5.09,5.11-10.21,7.03-12.14,8.31-1.9,1.26-1.27,1.26-5.09,3.17-3.82,1.92-7.02,3.84-10.84,6.39-3.83,2.55-8.95,4.46-13.41,7.65-4.46,3.21-6.36,5.74-10.85,8.3-4.43,2.55-8.28,3.82-14.04,4.48-5.75.63-10.18,1.28-12.1,1.92-1.9.63-10.21.63-10.21,3.19s2.56,6.37,5.74,7.65c3.2,1.27,10.22,3.19,12.12,4.45,1.93,1.28-1.9-3.18,1.93,1.28,3.82,4.45,1.26,7.03,2.52,10.21,1.3,3.18-1.9-.64,0,6.37,1.93,7.02,0,9.57,0,14.05v4.47c0,6.37,4.46,3.19,0,6.37q-4.45,3.21-7.65,3.21c-3.19,0-10.62-3.21-10.62-3.21,0,0-5.98-2.56-11.92,0-5.94,2.55-11.2-1.41-16.68-1.13-5.42.29.52.29-5.42.29s-7.65,0-10.21,1.71c-2.56,1.69-5.95,5.08-5.95,5.08v7.63s.83-4.29,5.95,0c5.09,4.29,15.63,4.29,15.63,4.29l3.49,4.24s.44,2.56,0,5.11c-.44,2.56-3.49,7.66-3.49,7.66,0,0,2.94,2.56,0,6.81-2.87,4.26,0,11.06,0,11.06,0,0-3.36,4.25-6.94,5.96-3.61,1.69-5.32,4.25-5.32,6.79s5.32,11.92,5.32,11.92h23.61s7.65,2.55,11.92,0c4.27-2.56,18.27-10.21,18.27-10.21,0,0,3.83-5.96,4.68-8.5.86-2.55,5.12-11.07,5.12-11.07l3.39-8.93,11.06-9.78,5.95-5.94,5.12-9.39v-3.38l14.45-11.34h5.98s2.56-4.57,6.78,0l4.29,4.55,17-.86,7.63-5.73,9.36-5.32,5.97,5.1,7.65,7.64s1.71.86,5.12,3.41c3.39,2.54,6.8,3.32,11.04,5.92,4.26,2.59,8.51,5.98,8.51,5.98l13.62,9.35s2.89,0,5.7,1.7c2.8,1.7,6.21,4.41,6.21,4.41v5.8s2.53,1.71,4.24,4.25c1.71,2.55-1.71,2.55,0,5.96l1.71,3.41s-4.27,9.35,0,9.35h4.24v-28.77s4.27-3.27,7.65,0l3.44,3.26,6.8.85s1.68-4.11-4.27-4.11-21.28-8.65-21.28-8.65l-12.74-8.51-5.12-4.29-7.65-11.89-5.94-10.19h-5.94l3.39-11.07s6.79.85,9.35,0c2.56-.84,5.97,7.66,5.97,7.66,0,0,11.9,5.95,17.01,8.51,5.09,2.55,15.31,5.95,15.31,5.95l12.13,5.11s-7.43-1.71,0,2.54l7.43,4.27s3.42-.85,6.8,7.64c3.39,8.51-3.38,11.92,0,14.47l3.39,2.56s.02,8.49,4.26,8.49h11.05s5.15,8.52,5.99,11.07c.85,2.54,7.63,1.69.85,2.54-6.84.84-5.12-6.8-6.84.84-1.68,7.66.91,16.46.91,16.46h4.24s5.94,2.83,9.32,0c3.42-2.83,5.98-8.8,5.98-8.8,0,0,1.7-5.95,0-8.5-1.74-2.54-6.83-9.34-6.83-9.34,0,0-3.39-3.42-1.68-7.67,1.68-4.25,7.66-17.22,13.6-14.14,5.94,3.07,14.44-3.08,17.86,0,3.41,3.07,7.68,3.07,10.21,3.93,2.56.85,11.89-3.93,11.89-3.93,0,0,3.42-4.57,0-7.12-3.38-2.55-5.94-6.87-5.94-9.39,0-2.07,1.13-8.61,1.54-10.98-25.32-43.53-54.75-84.34-87.85-121.9Z"/>
    <path class="cls-2" d="m1250.37,411.68c-1.73-5.59-8.59-3.81-12.14-7l-2.56-3.84c0,2.81-4.85,10.03-6.23,13.91-1.92,5.37-2.01,9.09-2.06,14.81-.08,6.4-4.84,33.45,7.68,22.81,9.36-7.97-.77-18.88,7.77-27.13,3.6-3.5,9.47-7.25,7.54-13.57Z"/>
    <path class="cls-2" d="m660.19,328.14c-2.2-5.09-1.73-11.57-1.98-17.18-1.21-.34-1.46.43-2.48,1.21v.64c-7.43,7.27-10.35,15.35-19.74,20.28-5.14,2.69-20.31,10.24-8.39,12.89,6.02,1.34,12.03-2.25,17.92-1.94,4.65.24,6.96,3.33,10.98,4.51,9.39,2.76,18.94-3.8,17.68-13.32-6.09-.38-11.92-2.41-13.99-7.1Z"/>
  </g>
</svg>